<svg xmlns="http://www.w3.org/2000/svg" viewBox="0 0 1200 630" role="img" aria-label="ARES Protocol hero">
  <defs>
    <linearGradient id="bg" x1="0" y1="0" x2="1" y2="1">
      <stop offset="0%" stop-color="#070b10"/>
      <stop offset="100%" stop-color="#121922"/>
    </linearGradient>
    <linearGradient id="accent" x1="0" y1="0" x2="1" y2="0">
      <stop offset="0%" stop-color="#C0392B"/>
      <stop offset="100%" stop-color="#E74C3C"/>
    </linearGradient>
  </defs>
  <rect width="1200" height="630" fill="url(#bg)"/>
  <g opacity="0.22" stroke="#1f2a36" stroke-width="1">
    <path d="M0 90h1200M0 180h1200M0 270h1200M0 360h1200M0 450h1200M0 540h1200"/>
    <path d="M120 0v630M240 0v630M360 0v630M480 0v630M600 0v630M720 0v630M840 0v630M960 0v630M1080 0v630"/>
  </g>
  <text x="130" y="250" fill="#E74C3C" style="font: 900 96px 'Arial Black', sans-serif; letter-spacing: 6px;">ARES</text>
  <text x="130" y="322" fill="#E8EDF2" style="font: 700 44px 'Arial', sans-serif; letter-spacing: 2px;">PROTOCOL</text>
  <text x="130" y="392" fill="#93A2B0" style="font: 500 30px 'Arial', sans-serif;">Autonomous Reputation &amp; Evaluation Scoring on Base</text>
  <rect x="130" y="438" width="520" height="8" fill="url(#accent)"/>
</svg>
